# xmcd
#
# Track frame offsets:
#	150
#	21859
#	39532
#	55528
#	77042
#	92157
#	117904
#	135799
#	159792
#	174011
#	196308
#	209417
#
# Disc length: 3176 seconds
#
# Revision: 0
# Processed by: cddbd v1.5.1PL2 Copyright (c) Steve Scherf et al.
# Submitted via: audiograbber 1.83.01
#
DISCID=880c660c
DTITLE=Rose City Kings - Up On It
DYEAR=2004
DGENRE=Blues
TTITLE0=Up On It
TTITLE1=Best Friend
TTITLE2=Breakdown Blues
TTITLE3=Double Belly Twist
TTITLE4=Big Trouble
TTITLE5=Dark Cloud
TTITLE6=Put a Wiggle in it
TTITLE7=Tequila Blues
TTITLE8=Baybelline
TTITLE9=Temptation
TTITLE10=Sweet Nothings
TTITLE11=One Thing
EXTD=
EXTT0=
EXTT1=
EXTT2=
EXTT3=
EXTT4=
EXTT5=
EXTT6=
EXTT7=
EXTT8=
EXTT9=
EXTT10=
EXTT11=
PLAYORDER=
